<svg width="128" height="40" viewBox="0 0 128 40" fill="none" xmlns="http://www.w3.org/2000/svg">
<g clip-path="url(#clip0)">
<path d="M0 33.9512V0H7.32399V33.9512H0Z" fill="white"/>
<path d="M30.2604 12.5147
C30.9245 11.4997 31.8311 10.6663 32.8983 10.0897C33.9654 9.5132 35.1594 9.21172 36.3724 9.21256C41.6581 9.21256 44.6637 12.9955 44.6637 18.713V33.9425H38.3588V19.8358C38.3588 16.7323 37.2447 15.3274 35.1575 15.3274C33.0702 15.3274 31.9561 17.121 31.9561 19.7408V33.9512H25.7002V19.8444C25.7002 16.741 24.586 15.336 22.4038 15.336C20.2676 15.336 19.1535 17.1785 19.1535 19.5537V33.9483H12.8976V9.69909H18.9606V11.9792H19.0556C19.6705 11.1137 20.4858 10.41 21.4319 9.92825C22.3779 9.44645 23.4265 9.20089 24.4881 9.21256C27.3498 9.21256 29.2902 10.7182 30.2604 12.5147Z" fill="white"/>
<path d="M49.863 0H61.0678C68.0032 0 73.1421 2.76377 73.1421 8.82679C73.1421 13.0473 70.7669 15.1806 68.8237 16.1508C71.0548 16.9742 74.0057 19.2543 74.0057 24.396C74.0057 30.5569 69.5923 33.9512 61.6868 33.9512H49.863V0ZM56.5565 13.482H60.7742C64.2289 13.482 65.9159 12.4658 65.9159 9.73941C65.9159 7.50824 64.56 6.05438 61.5976 6.05438H56.5565V13.482ZM56.5565 27.8767H61.7933C65.3833 27.8767 66.8861 26.0831 66.8861 23.754C66.8861 20.9903 65.5273 19.4356 61.7444 19.4356H56.5623L56.5565 27.8767Z" fill="white"/>
<path d="M112.854 21.5344L104.767 9.6991H112.042L116.407 16.0068L120.529 9.6991H128L119.853 21.5344L127.758 33.9512H120.529L116.407 27.0158L112.376 33.9512H105.058L112.854 21.5344Z" fill="white"/>
<path d="M102.277 9.82288V34.026H89.765L82.9333 39.1822V34.026H77.3597V9.82288H102.277Z" fill="#2BBF98"/>
<path d="M87.5194 17.383C87.5171 17.6864 87.4251 17.9824 87.2549 18.2336C87.0848 18.4848 86.8441 18.6801 86.5631 18.7948C86.2822 18.9095 85.9736 18.9384 85.6762 18.8781C85.3788 18.8177 85.106 18.6706 84.892 18.4555C84.678 18.2403 84.5325 17.9666 84.4738 17.6689C84.4151 17.3712 84.4458 17.0628 84.562 16.7825C84.6783 16.5022 84.8749 16.2626 85.1271 16.0938C85.3793 15.925 85.6757 15.8347 85.9792 15.8341C86.1823 15.8337 86.3835 15.8736 86.5711 15.9514C86.7587 16.0292 86.929 16.1434 87.0722 16.2874C87.2154 16.4314 87.3287 16.6024 87.4054 16.7904C87.4822 16.9785 87.5209 17.1799 87.5194 17.383Z" fill="white"/>
<path d="M95.1946 17.383C95.1924 17.6867 95.1002 17.9829 94.9298 18.2342C94.7593 18.4856 94.5183 18.6808 94.237 18.7953C93.9557 18.9098 93.6468 18.9385 93.3493 18.8776C93.0518 18.8168 92.7789 18.6692 92.5652 18.4534C92.3515 18.2377 92.2064 17.9635 92.1484 17.6654C92.0903 17.3673 92.1218 17.0587 92.2389 16.7785C92.3561 16.4983 92.5536 16.2591 92.8065 16.091C93.0594 15.9229 93.3565 15.8335 93.6602 15.8341C94.0674 15.8349 94.4577 15.9972 94.7454 16.2854C95.0331 16.5736 95.1946 16.9642 95.1946 17.3715V17.383Z" fill="white"/>
<path d="M89.8226 28.2423C88.0961 28.24 86.4411 27.5532 85.2203 26.3324C83.9995 25.1116 83.3127 23.4566 83.3104 21.7301H84.8161C84.8161 23.0579 85.3436 24.3313 86.2825 25.2702C87.2213 26.2091 88.4948 26.7366 89.8226 26.7366C91.1504 26.7366 92.4238 26.2091 93.3627 25.2702C94.3016 24.3313 94.829 23.0579 94.829 21.7301H96.3318C96.3295 23.4561 95.6431 25.1107 94.4229 26.3314C93.2028 27.5521 91.5485 28.2392 89.8226 28.2423Z" fill="white"/>
</g>
<defs>
<clipPath id="clip0">
<rect width="128" height="39.1822" fill="white"/>
</clipPath>
</defs>
</svg>
