<svg xmlns="http://www.w3.org/2000/svg" viewBox="0 0 228.86 269.68"><defs><style>.cls-1{fill:#2bbf98;}.cls-2{fill:#fff;}</style></defs><g id="Layer_2" data-name="Layer 2"><g id="Lager_1" data-name="Lager 1"><polygon class="cls-1" points="228.86 0 228.86 222.32 113.94 222.32 51.19 269.68 51.19 222.32 0 222.32 0 0 228.86 0"/><path class="cls-2" d="M93.26,69.44A14.11,14.11,0,1,1,79.15,55.33,14.1,14.1,0,0,1,93.26,69.44Z"/><path class="cls-2" d="M163.82,69.44a14.12,14.12,0,1,1-14.11-14.11,14.11,14.11,0,0,1,14.11,14.11Z"/><path class="cls-2" d="M114.43,169.18a59.86,59.86,0,0,1-59.79-59.8h13.8a46,46,0,0,0,92,0h13.8A59.86,59.86,0,0,1,114.43,169.18Z"/></g></g></svg>